<?xml version="1.0" standalone="no"?>
<!DOCTYPE svg PUBLIC "-//W3C//DTD SVG 20010904//EN"
 "http://www.w3.org/TR/2001/REC-SVG-20010904/DTD/svg10.dtd">
<svg version="1.0" xmlns="http://www.w3.org/2000/svg"
 width="186.000000pt" height="186.000000pt" viewBox="0 0 186.000000 186.000000"
 preserveAspectRatio="xMidYMid meet">
<metadata>
Created by potrace 1.11, written by Peter Selinger 2001-2013
</metadata>
<g transform="translate(0.000000,186.000000) scale(0.100000,-0.100000)"
fill="#000000" stroke="none">
<path d="M455 1544 c-8 -20 -15 -42 -15 -49 0 -7 -16 -12 -41 -13 -162 -7
-332 -204 -386 -447 -11 -51 -3 -176 13 -211 42 -89 106 -84 205 15 36 36 77
82 89 101 l22 35 -5 -30 c-3 -16 -11 -68 -17 -115 -12 -78 -15 -88 -48 -116
-23 -21 -33 -37 -29 -48 5 -13 16 -10 67 23 34 22 85 47 113 57 62 20 75 30
60 45 -7 7 -23 7 -53 -2 -33 -10 -43 -10 -49 0 -8 13 18 181 43 281 9 34 16
63 16 65 0 2 10 5 22 7 13 2 24 11 26 22 4 17 0 18 -38 12 -52 -8 -226 -92
-234 -112 -11 -28 22 -25 81 5 48 26 59 28 61 15 8 -34 -132 -210 -191 -240
-60 -31 -97 17 -97 127 0 167 106 366 234 439 87 51 116 39 105 -43 -4 -29 -3
-56 3 -62 12 -13 28 12 28 46 0 24 37 164 55 212 14 35 -25 17 -40 -19z"/>
<path d="M1770 1477 c-81 -32 -137 -64 -143 -81 -9 -23 11 -30 38 -12 37 24
39 20 12 -26 -13 -24 -43 -79 -67 -123 -23 -44 -46 -84 -50 -88 -4 -4 -12 25
-18 65 -27 170 -26 178 33 199 39 15 45 46 8 42 -24 -3 -128 -62 -160 -92
l-21 -20 -17 25 c-13 21 -22 25 -43 20 -15 -4 -38 -9 -52 -11 -72 -11 -167
-207 -150 -307 27 -152 179 -67 241 133 11 34 19 74 19 90 0 17 4 28 9 25 5
-3 20 3 33 14 l25 19 12 -97 c36 -289 36 -289 136 -86 106 215 134 257 191
284 41 20 53 40 28 46 -5 2 -34 -7 -64 -19z m-419 -169 c25 -46 -16 -184 -69
-231 -84 -76 -128 46 -63 178 32 65 36 68 103 74 10 0 22 -9 29 -21z"/>
<path d="M1103 1344 c-29 -13 -58 -32 -65 -43 -9 -15 -19 -18 -39 -14 -100 20
-233 -132 -232 -265 1 -76 30 -105 95 -93 17 3 81 67 89 89 18 46 20 15 4 -53
-33 -143 -83 -215 -150 -215 -46 0 -60 20 -47 70 10 42 2 59 -17 37 -13 -16
-39 -126 -43 -182 -4 -52 23 -57 28 -5 6 57 8 58 72 53 123 -11 169 47 222
277 12 52 24 106 26 120 8 41 36 144 46 162 5 10 27 27 49 39 37 18 47 39 23
45 -5 1 -32 -8 -61 -22z m-90 -96 c11 -33 -54 -183 -102 -236 -90 -97 -122 61
-36 174 46 60 126 96 138 62z"/>
<path d="M675 1270 c-11 -5 -32 -11 -47 -14 -34 -8 -102 -108 -124 -184 -23
-76 -15 -159 16 -182 85 -64 231 129 227 300 -2 48 -6 65 -21 76 -22 16 -23
16 -51 4z m20 -67 c23 -22 15 -114 -14 -171 -63 -123 -146 -123 -143 1 1 61
57 180 81 172 9 -2 23 0 31 5 21 13 26 13 45 -7z"/>
<path d="M1020 545 c0 -8 5 -15 10 -15 6 0 10 7 10 15 0 8 -4 15 -10 15 -5 0
-10 -7 -10 -15z"/>
<path d="M400 445 l0 -105 51 0 c28 0 59 5 70 10 24 13 49 61 49 95 0 34 -25
82 -49 95 -11 5 -42 10 -70 10 l-51 0 0 -105z m121 66 c18 -14 23 -29 23 -66
1 -58 -26 -85 -84 -85 l-37 0 -1 85 0 85 38 0 c22 0 47 -8 61 -19z"/>
<path d="M655 476 c-33 -33 -33 -79 0 -111 31 -31 75 -33 101 -3 19 21 19 21
-1 13 -39 -16 -77 -11 -92 13 l-15 22 65 0 c36 0 68 4 71 9 3 5 -5 24 -17 42
-30 45 -76 51 -112 15z m89 -12 c27 -26 18 -34 -40 -34 -56 0 -58 3 -31 38 13
17 52 15 71 -4z"/>
<path d="M858 489 c-10 -5 -18 -21 -18 -34 0 -19 9 -26 50 -40 44 -15 49 -19
40 -36 -11 -20 -45 -25 -70 -10 -22 14 -34 1 -13 -15 31 -23 80 -18 99 11 21
32 9 47 -47 64 -29 9 -39 17 -37 29 3 13 13 17 46 15 45 -2 57 11 20 21 -32 8
-50 7 -70 -5z"/>
<path d="M1020 420 c0 -47 4 -80 10 -80 11 0 12 9 12 90 0 70 0 70 -12 70 -6
0 -10 -33 -10 -80z"/>
<path d="M1135 475 c-63 -62 9 -166 86 -125 15 8 19 7 19 -4 0 -38 -70 -62
-98 -34 -6 6 -15 8 -19 4 -13 -12 28 -36 61 -36 59 1 71 20 74 125 3 64 0 95
-7 95 -6 0 -11 -7 -11 -17 0 -15 -1 -15 -18 0 -26 24 -59 21 -87 -8z m86 -11
c19 -23 20 -71 3 -89 -19 -19 -58 -19 -73 -1 -19 22 -20 69 -3 89 19 21 55 22
73 1z"/>
<path d="M1339 493 c-7 -41 -2 -152 6 -150 5 2 11 21 12 43 4 65 12 83 39 90
36 9 44 -3 46 -74 1 -38 6 -61 13 -59 14 5 9 125 -6 143 -15 19 -49 18 -78 -3
-14 -9 -21 -11 -17 -5 3 6 2 13 -4 17 -5 3 -11 3 -11 -2z"/>
</g>
</svg>
