<?xml version="1.0" encoding="utf-8"?>
<!-- Generator: Adobe Illustrator 23.0.1, SVG Export Plug-In . SVG Version: 6.00 Build 0)  -->
<svg version="1.1" id="Capa_1" xmlns="http://www.w3.org/2000/svg" xmlns:xlink="http://www.w3.org/1999/xlink" x="0px" y="0px"
	 viewBox="0 0 512 512" style="enable-background:new 0 0 512 512;" xml:space="preserve">
<style type="text/css">
	.st0{fill:#84C5A3;}
</style>
<g>
	<g>
		<circle class="st0" cx="337.9" cy="236" r="10"/>
	</g>
</g>
<g>
	<g>
		<path class="st0" d="M339.6,278.8c-5.5-0.8-10.5,3-11.4,8.4c-2.7,18.5-18.3,33.8-41.7,40.9c-25,7.7-59.7,5.1-80.9-18
			c-3.7-4.1-10.1-4.3-14.1-0.6c-4.1,3.7-4.3,10.1-0.6,14.1c12.3,13.3,28.9,22.4,48.1,26.3c6.8,1.4,13.8,2,20.9,2
			c11,0,22-1.6,32.4-4.8c31-9.5,51.8-30.9,55.6-57.1C348.9,284.7,345.1,279.7,339.6,278.8z"/>
	</g>
</g>
<g>
	<g>
		<path class="st0" d="M478.6,190.4c-18.2-21.1-43.3-34.7-73.5-40.2c28.9-19.5,53.8-38.9,71.6-55.9c27.1-25.8,36.2-44,28.6-57.1
			c-8.4-14.6-32.8-14.5-76.7,0.3c-37.1,12.5-83.3,34.3-130.1,61.4c-8.1,4.7-16.1,9.4-23.9,14.3c-5.8-16.4-2-35.2,10.8-51.4
			c9.6-12.2,11.8-27.7,5.6-40.4C284.6,8,270.4,0,253.2,0h-0.5c-61,0-120.7,24.1-168,67.8C37.3,111.5,8.3,169.5,3,230.9
			c-6.4,74,17.3,144.3,66.6,198C118,481.7,186.6,512,257.9,512c38.4,0,74.4-7,107.1-20.9c29.9-12.7,56.4-30.7,78.9-53.8
			c20.8-21.3,37.2-45.9,48.8-73c11-25.8,17-53.1,17.4-79C510.6,247.7,499.7,214.9,478.6,190.4z M275.8,136
			c10.6-6.7,21.6-13.3,32.8-19.8c43.3-25,86.4-45.6,121.4-58c38.5-13.6,54.3-12.7,58-11c-0.3,2.3-3.2,12.7-28.5,36
			c-21.1,19.4-51.9,42.3-86.8,64.3c-11,7-22.5,13.9-34.1,20.6c-16,9.2-32,17.9-47.6,25.8c-3.1-9.1-7.1-18-12-26.4
			c-4.7-8.2-10.2-15.9-16.3-23C266.9,141.7,271.3,138.8,275.8,136z M272.8,202.8c-28.2,13.4-54.1,23.6-74.8,29.5
			c-1.1-5.2-3-10.2-5.7-14.8c-2.5-4.4-5.7-8.4-9.4-11.8c15.5-14.9,37.3-32.3,63-50c6,6.7,11.2,13.9,15.7,21.8
			C266.2,185.6,270,194,272.8,202.8z M490,285.1C488.6,384.6,399.5,492,257.9,492c-65.7,0-129-27.9-173.7-76.6
			C38.8,365.9,17,300.9,22.9,232.6C33,115.4,136.1,20,252.7,20h0.4c9.6,0,16.8,3.7,19.9,10.1c2.8,5.9,1.6,13.1-3.3,19.3
			c-18,22.8-22.5,51-12.4,74.6c-5.4,3.5-10.6,6.9-15.7,10.4c0,0,0,0-0.1,0c-31.8,21.5-58.7,42.8-76.5,60.8
			c-13.6-4.6-28.4-3.3-41.1,4c-20.8,12-48.1,67.9-53.3,79c-1.4,3-1.3,6.4,0.4,9.3c1.6,2.8,4.6,4.7,7.9,5c5.5,0.4,21.2,1.6,38.7,1.6
			c21.2,0,45-1.7,56.4-8.2c12.3-7.1,20.9-19,23.9-32.7c24.5-6.4,56.6-19,91.3-35.9c19.4-9.5,39.4-20.1,59.4-31.7
			c10.1-5.9,20.2-11.9,29.9-18c0.1,0,0.1,0,0.2,0C462,169.9,490.8,229.8,490,285.1z M178.9,244.4c-0.6,10.1-6.2,19.1-15,24.1
			c-9.5,5.5-41.9,6.2-68.6,5c12.3-23.7,29.2-51.5,38.6-56.9c8.9-5.2,19.7-5.4,28.9-0.6c5,2.6,9.2,6.6,12.1,11.6
			C177.9,232.6,179.3,238.5,178.9,244.4z"/>
	</g>
</g>
<g>
	<g>
		<path class="st0" d="M177.9,61.8c-22.1,0-40,17.9-40,40s17.9,40,40,40s40-17.9,40-40S200,61.8,177.9,61.8z M177.9,121.8
			c-11,0-20-9-20-20s9-20,20-20s20,9,20,20S188.9,121.8,177.9,121.8z"/>
	</g>
</g>
<g>
	<g>
		<path class="st0" d="M127.9,330.5c-22.1,0-40,17.9-40,40s17.9,40,40,40s40-17.9,40-40S150,330.5,127.9,330.5z M127.9,390.5
			c-11,0-20-9-20-20s9-20,20-20s20,9,20,20S138.9,390.5,127.9,390.5z"/>
	</g>
</g>
<g>
	<g>
		<path class="st0" d="M227.9,390.5c-22.1,0-40,17.9-40,40s17.9,40,40,40s40-17.9,40-40S250,390.5,227.9,390.5z M227.9,450.5
			c-11,0-20-9-20-20s9-20,20-20s20,9,20,20S238.9,450.5,227.9,450.5z"/>
	</g>
</g>
<g>
	<g>
		<path class="st0" d="M347.9,370.5c-22.1,0-40,17.9-40,40s17.9,40,40,40s40-17.9,40-40S370,370.5,347.9,370.5z M347.9,430.5
			c-11,0-20-9-20-20s9-20,20-20s20,9,20,20S359,430.5,347.9,430.5z"/>
	</g>
</g>
<g>
	<g>
		<path class="st0" d="M427.9,270.5c-22.1,0-40,17.9-40,40s17.9,40,40,40s40-17.9,40-40S450,270.5,427.9,270.5z M427.9,330.5
			c-11,0-20-9-20-20s9-20,20-20s20,9,20,20S439,330.5,427.9,330.5z"/>
	</g>
</g>
</svg>
